<svg width="14" height="9" viewBox="0 0 14 9" fill="none" xmlns="http://www.w3.org/2000/svg">
<path fill-rule="evenodd" clip-rule="evenodd" d="M2.19816 0.600098H0.710323C0.285221 0.600098 0.200195 0.800188 0.200195 1.02076C0.200195 1.41478 0.704611 3.36889 2.54883 5.95335C3.77831 7.71833 5.51053 8.67509 7.08681 8.67509C8.03256 8.67509 8.14956 8.46259 8.14956 8.09658V6.76259C8.14956 6.33759 8.23915 6.25276 8.53861 6.25276C8.75931 6.25276 9.1376 6.36309 10.0203 7.21407C11.0291 8.22264 11.1954 8.67509 11.7629 8.67509H13.2507C13.6758 8.67509 13.8884 8.46259 13.7658 8.04325C13.6316 7.6253 13.1499 7.01887 12.5108 6.30007C12.164 5.89032 11.6439 5.44909 11.4862 5.22843C11.2656 4.94479 11.3286 4.81869 11.4862 4.56658C11.4862 4.56658 13.2989 2.0136 13.4881 1.1469C13.5827 0.83168 13.4881 0.600098 13.0382 0.600098H11.5503C11.172 0.600098 10.9976 0.800188 10.903 1.02076C10.903 1.02076 10.1464 2.86458 9.07457 4.06227C8.72777 4.40895 8.57014 4.51928 8.38097 4.51928C8.28641 4.51928 8.14952 4.40895 8.14952 4.09381V1.1469C8.14952 0.768653 8.03974 0.600098 7.72443 0.600098H5.38638C5.15 0.600098 5.00779 0.775622 5.00779 0.94201C5.00779 1.30054 5.54372 1.38324 5.59897 2.39181V4.58235C5.59897 5.0626 5.51218 5.14968 5.32306 5.14968C4.81867 5.14968 3.59174 3.29761 2.86405 1.1784C2.72146 0.766485 2.57841 0.600098 2.19816 0.600098Z" fill="#454545"/>
</svg>
