<svg width="12" height="14" viewBox="0 0 12 14" fill="none" xmlns="http://www.w3.org/2000/svg">
<path d="M11.9996 12.6971L11.5909 3.25186C11.5837 2.55457 11.0242 1.98894 10.3376 1.98894H8.26023C8.09165 0.876041 7.1417 0 5.99863 0C4.85526 0 3.90504 0.876041 3.73641 1.98894H1.6619C0.975454 1.98894 0.416165 2.55459 0.408963 3.25189L0.000515534 12.6968C0.000177215 12.7048 0 12.713 0 12.721C0 13.4262 0.56223 14 1.25333 14H10.7468C11.4379 14 12.0001 13.4264 12.0001 12.7212C12.0001 12.7131 11.9999 12.7052 11.9996 12.6971ZM5.99863 1.08933C6.55239 1.08933 7.02117 1.46958 7.17161 1.98893H4.82506C4.97558 1.46959 5.44458 1.08933 5.99863 1.08933ZM10.7468 12.9118H1.25333C1.15013 12.9118 1.06873 12.8323 1.06459 12.73L1.47278 3.29054C1.47313 3.28253 1.4733 3.27313 1.4733 3.26511C1.4733 3.16046 1.55613 3.07711 1.66189 3.07711H3.7054V5.06762C3.7054 5.36843 3.94311 5.61228 4.23704 5.61228C4.53098 5.61228 4.76869 5.36843 4.76869 5.06762V3.07711H7.21747V5.06762C7.21747 5.36843 7.45518 5.61228 7.74912 5.61228C8.04305 5.61228 8.28076 5.36843 8.28076 5.06762V3.07711H10.3376C10.4436 3.07711 10.5266 3.16033 10.5266 3.26498C10.5266 3.27301 10.5267 3.28166 10.5271 3.28969L10.9355 12.7297C10.9314 12.832 10.85 12.9118 10.7468 12.9118Z" fill="white"/>
</svg>
