<svg width="12" height="12" viewBox="0 0 12 12" fill="none" xmlns="http://www.w3.org/2000/svg">
<path d="M5.9998 1.1221C7.58863 1.1221 7.77663 1.12824 8.40418 1.15681C8.98425 1.18327 9.29932 1.2801 9.50906 1.36159C9.78681 1.46952 9.98497 1.59848 10.1933 1.80656C10.4016 2.01488 10.5306 2.21304 10.6383 2.49079C10.7197 2.70052 10.8166 3.01559 10.843 3.59567C10.8716 4.22298 10.8778 4.41122 10.8778 6.00004C10.8778 7.58886 10.8716 7.77686 10.843 8.40441C10.8166 8.98448 10.7197 9.29955 10.6383 9.50928C10.5303 9.78704 10.4014 9.9852 10.1933 10.1935C9.98497 10.4018 9.78681 10.5308 9.50906 10.6385C9.29932 10.72 8.98425 10.8168 8.40418 10.8433C7.77687 10.8718 7.58863 10.878 5.9998 10.878C4.41098 10.878 4.22274 10.8718 3.59543 10.8433C3.01536 10.8168 2.70028 10.72 2.49055 10.6385C2.2128 10.5305 2.01464 10.4016 1.80632 10.1935C1.598 9.9852 1.46905 9.78704 1.36135 9.50928C1.27986 9.29955 1.18303 8.98448 1.15657 8.40441C1.12799 7.7771 1.12185 7.58886 1.12185 6.00004C1.12185 4.41122 1.12799 4.22321 1.15657 3.59567C1.18303 3.01559 1.27986 2.70052 1.36135 2.49079C1.46928 2.21304 1.59824 2.01488 1.80632 1.80656C2.01464 1.59825 2.2128 1.46929 2.49055 1.36159C2.70028 1.2801 3.01536 1.18327 3.59543 1.15681C4.22298 1.12824 4.41098 1.1221 5.9998 1.1221ZM5.9998 0.0500488C4.38382 0.0500488 4.18117 0.0568982 3.54654 0.085949C2.91332 0.114764 2.48087 0.215379 2.10226 0.362522C1.7109 0.514626 1.37906 0.717982 1.0484 1.04888C0.717739 1.37954 0.514147 1.71138 0.362279 2.1025C0.215135 2.48111 0.11452 2.91356 0.085705 3.54678C0.0566541 4.18141 0.0498047 4.38405 0.0498047 6.00004C0.0498047 7.61602 0.0566541 7.81867 0.085705 8.4533C0.11452 9.08651 0.215135 9.51896 0.362279 9.89757C0.514383 10.2889 0.717739 10.6208 1.04864 10.9514C1.37953 11.2823 1.71114 11.4857 2.1025 11.6378C2.48087 11.7849 2.91356 11.8855 3.54678 11.9144C4.18141 11.9434 4.38406 11.9503 6.00004 11.9503C7.61603 11.9503 7.81867 11.9434 8.45331 11.9144C9.08652 11.8855 9.51921 11.7849 9.89758 11.6378C10.2889 11.4857 10.6208 11.2823 10.9514 10.9514C11.2823 10.6205 11.4857 10.2889 11.6378 9.89757C11.7849 9.5192 11.8856 9.08651 11.9144 8.4533C11.9434 7.81867 11.9503 7.61602 11.9503 6.00004C11.9503 4.38405 11.9434 4.18141 11.9144 3.54678C11.8856 2.91356 11.7849 2.48087 11.6378 2.1025C11.4857 1.71114 11.2823 1.3793 10.9514 1.04864C10.6205 0.717745 10.2889 0.51439 9.89758 0.362286C9.51874 0.215379 9.08628 0.114764 8.45307 0.085949C7.81844 0.0568982 7.61579 0.0500488 5.9998 0.0500488Z" fill="#454545"/>
<path d="M5.99964 2.94482C4.31209 2.94482 2.94434 4.31281 2.94434 6.00013C2.94434 7.68744 4.31233 9.05543 5.99964 9.05543C7.68695 9.05543 9.05494 7.68744 9.05494 6.00013C9.05494 4.31281 7.68719 2.94482 5.99964 2.94482ZM5.99964 7.98338C4.90421 7.98338 4.01638 7.09532 4.01638 6.00013C4.01638 4.9047 4.90444 4.01687 5.99964 4.01687C7.09483 4.01687 7.98289 4.90493 7.98289 6.00013C7.98289 7.09556 7.09507 7.98338 5.99964 7.98338Z" fill="#454545"/>
<path d="M9.17639 3.53784C9.57072 3.53784 9.89038 3.21817 9.89038 2.82385C9.89038 2.42953 9.57072 2.10986 9.17639 2.10986C8.78207 2.10986 8.4624 2.42953 8.4624 2.82385C8.4624 3.21817 8.78207 3.53784 9.17639 3.53784Z" fill="#454545"/>
</svg>
