<svg width="10" height="14" viewBox="0 0 10 14" fill="none" xmlns="http://www.w3.org/2000/svg">
<path d="M1.11074 7.54628L7.34092 13.7763C7.48502 13.9206 7.67737 14 7.88248 14C8.08758 14 8.27994 13.9206 8.42403 13.7763L8.88284 13.3176C9.18139 13.0188 9.18139 12.533 8.88284 12.2345L3.65121 7.0029L8.88865 1.76546C9.03274 1.62125 9.1123 1.42901 9.1123 1.22402C9.1123 1.0188 9.03274 0.826559 8.88865 0.682235L8.42984 0.223653C8.28563 0.0794431 8.09338 -2.77195e-06 7.88828 -2.75402e-06C7.68318 -2.73608e-06 7.49082 0.0794431 7.34672 0.223653L1.11074 6.45941C0.966306 6.60408 0.886973 6.79723 0.887429 7.00256C0.886973 7.20869 0.966306 7.40173 1.11074 7.54628Z" fill="black"/>
</svg>
