<svg width="14" height="14" viewBox="0 0 14 14" fill="none" xmlns="http://www.w3.org/2000/svg">
<path d="M2.83219 4.20515V5.66694H2.73493C2.12275 5.66694 1.625 6.16469 1.625 6.77687V12.8901C1.625 13.5022 2.12275 14 2.73493 14H11.2654C11.8776 14 12.3753 13.5022 12.3753 12.8901V6.77401C12.3753 6.16183 11.8776 5.66408 11.2654 5.66408H11.2368V4.20229C11.2368 1.88517 9.3516 0 7.03448 0C4.71736 0.00286065 2.83219 1.88803 2.83219 4.20515ZM7.6581 10.1038C7.57228 10.1667 7.5494 10.2268 7.5494 10.3269C7.55226 10.7761 7.55226 11.2223 7.55226 11.6714C7.56084 11.8574 7.46644 12.0405 7.30052 12.1234C6.90861 12.3237 6.5167 12.0433 6.5167 11.6714V11.6686C6.5167 11.2195 6.5167 10.7703 6.51956 10.3212C6.51956 10.2297 6.49954 10.1696 6.41944 10.1095C6.01323 9.80915 5.87878 9.2971 6.08189 8.84798C6.27927 8.4103 6.76272 8.15284 7.21756 8.24438C7.7239 8.34736 8.07576 8.75358 8.08148 9.25991C8.08148 9.61177 7.94131 9.89783 7.6581 10.1038ZM4.67159 4.20515C4.67159 2.90069 5.73289 1.84226 7.03448 1.84226C8.33894 1.84226 9.39738 2.90356 9.39738 4.20515V5.66694H4.67159V4.20515Z" fill="#4A5FFF"/>
</svg>
