<svg width="12" height="11" viewBox="0 0 12 11" fill="none" xmlns="http://www.w3.org/2000/svg">
<path fill-rule="evenodd" clip-rule="evenodd" d="M0.867868 5.14538C4.06224 3.75364 6.19233 2.83612 7.25812 2.39282C10.3012 1.12711 10.9335 0.90724 11.3456 0.89998C11.4363 0.898383 11.639 0.920848 11.7702 1.02738C11.8811 1.11733 11.9116 1.23884 11.9262 1.32412C11.9408 1.40941 11.959 1.60369 11.9445 1.75549C11.7796 3.48815 11.0661 7.69287 10.7031 9.63348C10.5495 10.4546 10.247 10.7299 9.95421 10.7569C9.31788 10.8154 8.83468 10.3364 8.21836 9.93236C7.25395 9.30017 6.70912 8.90663 5.77298 8.28974C4.69112 7.57681 5.39245 7.18497 6.009 6.54459C6.17035 6.377 8.97404 3.82683 9.0283 3.59549C9.03509 3.56656 9.04139 3.45871 8.97732 3.40176C8.91325 3.34481 8.81869 3.36429 8.75045 3.37977C8.65372 3.40173 7.11305 4.42005 4.12845 6.43474C3.69114 6.73504 3.29503 6.88135 2.94014 6.87368C2.54889 6.86523 1.79629 6.65246 1.23682 6.4706C0.550592 6.24754 0.00519577 6.1296 0.0526876 5.75077C0.0774242 5.55345 0.349151 5.35165 0.867868 5.14538Z" fill="#454545"/>
</svg>
