<svg width="16" height="15" viewBox="0 0 16 15" fill="none" xmlns="http://www.w3.org/2000/svg">
<path d="M6.81831 1.17178L0.182992 12.4842C0.0631345 12.6884 2.21831e-05 12.9202 5.84669e-09 13.1561C-2.21714e-05 13.392 0.0630466 13.6238 0.182866 13.8281C0.302684 14.0324 0.475031 14.202 0.682579 14.32C0.890126 14.4379 1.12556 14.5 1.36521 14.5H14.6348C14.8744 14.5 15.1099 14.4379 15.3174 14.32C15.525 14.202 15.6973 14.0324 15.8171 13.8281C15.937 13.6238 16 13.392 16 13.1561C16 12.9202 15.9369 12.6884 15.817 12.4842L9.1824 1.17178C9.0626 0.967529 8.8903 0.797922 8.6828 0.680001C8.47531 0.56208 8.23994 0.5 8.00036 0.5C7.76077 0.5 7.5254 0.56208 7.31791 0.680001C7.11042 0.797922 6.93811 0.967529 6.81831 1.17178Z" fill="#FF5757"/>
<path d="M8.08676 4.66089H7.91368C7.48754 4.66089 7.14209 5.00094 7.14209 5.42042V9.05087C7.14209 9.47035 7.48754 9.8104 7.91368 9.8104H8.08676C8.5129 9.8104 8.85835 9.47035 8.85835 9.05087V5.42042C8.85835 5.00094 8.5129 4.66089 8.08676 4.66089Z" fill="#FCF4D9"/>
<path d="M8.00022 12.6897C8.47415 12.6897 8.85835 12.3115 8.85835 11.845C8.85835 11.3784 8.47415 11.0002 8.00022 11.0002C7.52629 11.0002 7.14209 11.3784 7.14209 11.845C7.14209 12.3115 7.52629 12.6897 8.00022 12.6897Z" fill="#FCF4D9"/>
</svg>
