<svg width="11" height="18" viewBox="0 0 11 18" fill="none" xmlns="http://www.w3.org/2000/svg">
<path d="M10.5001 8.29764L2.4899 0.287559C2.30463 0.102146 2.05731 0 1.79361 0C1.5299 0 1.28259 0.102146 1.09732 0.287559L0.507424 0.87731C0.123574 1.2616 0.123574 1.88618 0.507424 2.26988L7.23381 8.99627L0.499961 15.7301C0.314694 15.9155 0.212402 16.1627 0.212402 16.4263C0.212402 16.6901 0.314694 16.9373 0.499961 17.1228L1.08986 17.7124C1.27527 17.8979 1.52244 18 1.78615 18C2.04985 18 2.29717 17.8979 2.48243 17.7124L10.5001 9.69504C10.6858 9.50904 10.7878 9.26071 10.7872 8.99671C10.7878 8.73169 10.6858 8.48349 10.5001 8.29764Z" fill="black"/>
</svg>
